<?xml version="1.0" encoding="UTF-8" standalone="no"?>
<!-- Created with Inkscape (http://www.inkscape.org/) -->

<svg
   version="1.1"
   id="svg2"
   xml:space="preserve"
   width="1600"
   height="1066.6667"
   viewBox="0 0 1600 1066.6667"
   sodipodi:docname="ecran.svg"
   inkscape:version="1.1.2 (0a00cf5339, 2022-02-04)"
   xmlns:inkscape="http://www.inkscape.org/namespaces/inkscape"
   xmlns:sodipodi="http://sodipodi.sourceforge.net/DTD/sodipodi-0.dtd"
   xmlns="http://www.w3.org/2000/svg"
   xmlns:svg="http://www.w3.org/2000/svg"><defs
     id="defs6" /><sodipodi:namedview
     id="namedview4"
     pagecolor="#ffffff"
     bordercolor="#666666"
     borderopacity="1.0"
     inkscape:pageshadow="2"
     inkscape:pageopacity="0.0"
     inkscape:pagecheckerboard="0"
     showgrid="false"
     inkscape:zoom="0.63937495"
     inkscape:cx="787.48784"
     inkscape:cy="532.55136"
     inkscape:window-width="1920"
     inkscape:window-height="1029"
     inkscape:window-x="0"
     inkscape:window-y="25"
     inkscape:window-maximized="1"
     inkscape:current-layer="g8" /><g
     id="g8"
     inkscape:groupmode="layer"
     inkscape:label="ink_ext_XXXXXX"
     transform="matrix(1.3333333,0,0,-1.3333333,0,1066.6667)"><g
       id="g10"
       transform="scale(0.1)"><path
         d="M 12000,0 H 0 V 8000 H 12000 V 0"
         style="fill:#f5f3e6;fill-opacity:1;fill-rule:nonzero;stroke:none"
         id="path12" /><path
         d="m 11242.4,7771.87 621.2,-30.42 v -197.72 l 30.3,-7391.64 -712.1,15.211 136.4,60.828 h -287.9 L 954.547,288.969 761.363,193.922 151.52,197.711 136.367,7885.93 l 621.211,7.61 454.542,-152.09 10136.38,-45.63 z M 15.1523,0 H 12000 V 8000 H 0 L 15.1523,0"
         style="fill:#000000;fill-opacity:1;fill-rule:nonzero;stroke:none"
         id="path14" /><path
         d="m 10609.9,7847.87 v 152.09 h -121.3 v -152.09 h 121.3"
         style="fill:#9d9a99;fill-opacity:1;fill-rule:nonzero;stroke:none"
         id="path16" /><path
         d="m 10418.6,7847.87 v 152.09 h -121.2 v -152.09 h 121.2"
         style="fill:#9d9a99;fill-opacity:1;fill-rule:nonzero;stroke:none"
         id="path18" /><path
         d="m 10227.3,7847.87 v 152.09 h -121.2 v -152.09 h 121.2"
         style="fill:#9d9a99;fill-opacity:1;fill-rule:nonzero;stroke:none"
         id="path20" /><path
         d="m 10036,7847.87 v 152.09 H 9914.78 V 7847.87 H 10036"
         style="fill:#9d9a99;fill-opacity:1;fill-rule:nonzero;stroke:none"
         id="path22" /><path
         d="m 9844.7,7847.87 v 152.09 h -121.21 v -152.09 h 121.21"
         style="fill:#9d9a99;fill-opacity:1;fill-rule:nonzero;stroke:none"
         id="path24" /><path
         d="m 9653.41,7847.87 v 152.09 H 9532.2 v -152.09 h 121.21"
         style="fill:#9d9a99;fill-opacity:1;fill-rule:nonzero;stroke:none"
         id="path26" /><path
         d="m 9462.12,7847.87 v 152.09 h -121.21 v -152.09 h 121.21"
         style="fill:#9d9a99;fill-opacity:1;fill-rule:nonzero;stroke:none"
         id="path28" /><path
         d="m 9270.83,7847.87 v 152.09 h -121.21 v -152.09 h 121.21"
         style="fill:#9d9a99;fill-opacity:1;fill-rule:nonzero;stroke:none"
         id="path30" /><path
         d="m 9079.54,7847.87 v 152.09 h -121.21 v -152.09 h 121.21"
         style="fill:#9d9a99;fill-opacity:1;fill-rule:nonzero;stroke:none"
         id="path32" /><path
         d="m 8888.26,7847.87 v 152.09 h -121.21 v -152.09 h 121.21"
         style="fill:#9d9a99;fill-opacity:1;fill-rule:nonzero;stroke:none"
         id="path34" /><path
         d="m 7357.96,7847.87 v 152.09 h -121.22 v -152.09 h 121.22"
         style="fill:#9d9a99;fill-opacity:1;fill-rule:nonzero;stroke:none"
         id="path36" /><path
         d="m 7166.67,7847.87 v 152.09 h -121.21 v -152.09 h 121.21"
         style="fill:#9d9a99;fill-opacity:1;fill-rule:nonzero;stroke:none"
         id="path38" /><path
         d="m 5827.65,7847.87 v 152.09 h -121.21 v -152.09 h 121.21"
         style="fill:#9d9a99;fill-opacity:1;fill-rule:nonzero;stroke:none"
         id="path40" /><path
         d="m 5636.36,7847.87 v 152.09 h -121.21 v -152.09 h 121.21"
         style="fill:#9d9a99;fill-opacity:1;fill-rule:nonzero;stroke:none"
         id="path42" /><path
         d="m 5445.08,7847.87 v 152.09 h -121.22 v -152.09 h 121.22"
         style="fill:#9d9a99;fill-opacity:1;fill-rule:nonzero;stroke:none"
         id="path44" /><path
         d="m 5253.79,7847.87 v 152.09 h -121.21 v -152.09 h 121.21"
         style="fill:#9d9a99;fill-opacity:1;fill-rule:nonzero;stroke:none"
         id="path46" /><path
         d="m 5062.5,7847.87 v 152.09 h -121.21 v -152.09 h 121.21"
         style="fill:#9d9a99;fill-opacity:1;fill-rule:nonzero;stroke:none"
         id="path48" /><path
         d="m 4871.21,7847.87 v 152.09 H 4750 v -152.09 h 121.21"
         style="fill:#9d9a99;fill-opacity:1;fill-rule:nonzero;stroke:none"
         id="path50" /><path
         d="m 4679.93,7847.87 v 152.09 h -121.22 v -152.09 h 121.22"
         style="fill:#9d9a99;fill-opacity:1;fill-rule:nonzero;stroke:none"
         id="path52" /><path
         d="m 4488.64,7847.87 v 152.09 h -121.21 v -152.09 h 121.21"
         style="fill:#9d9a99;fill-opacity:1;fill-rule:nonzero;stroke:none"
         id="path54" /><path
         d="m 4297.35,7847.87 v 152.09 h -121.21 v -152.09 h 121.21"
         style="fill:#9d9a99;fill-opacity:1;fill-rule:nonzero;stroke:none"
         id="path56" /><path
         d="m 4106.06,7847.87 v 152.09 h -121.21 v -152.09 h 121.21"
         style="fill:#9d9a99;fill-opacity:1;fill-rule:nonzero;stroke:none"
         id="path58" /><path
         d="m 3914.78,7847.87 v 152.09 h -121.22 v -152.09 h 121.22"
         style="fill:#9d9a99;fill-opacity:1;fill-rule:nonzero;stroke:none"
         id="path60" /><path
         d="m 3723.49,7847.87 v 152.09 h -121.21 v -152.09 h 121.21"
         style="fill:#9d9a99;fill-opacity:1;fill-rule:nonzero;stroke:none"
         id="path62" /><path
         d="m 3532.2,7847.87 v 152.09 h -121.21 v -152.09 h 121.21"
         style="fill:#9d9a99;fill-opacity:1;fill-rule:nonzero;stroke:none"
         id="path64" /><path
         d="m 3340.91,7847.87 v 152.09 H 3219.7 v -152.09 h 121.21"
         style="fill:#9d9a99;fill-opacity:1;fill-rule:nonzero;stroke:none"
         id="path66" /><path
         d="m 2958.33,7847.87 v 152.09 h -121.21 v -152.09 h 121.21"
         style="fill:#9d9a99;fill-opacity:1;fill-rule:nonzero;stroke:none"
         id="path68" /><path
         d="m 2767.05,7847.87 v 152.09 h -121.22 v -152.09 h 121.22"
         style="fill:#9d9a99;fill-opacity:1;fill-rule:nonzero;stroke:none"
         id="path70" /><path
         d="m 2575.76,7847.87 v 152.09 h -121.21 v -152.09 h 121.21"
         style="fill:#9d9a99;fill-opacity:1;fill-rule:nonzero;stroke:none"
         id="path72" /><path
         d="m 2193.18,7847.87 v 152.09 h -121.21 v -152.09 h 121.21"
         style="fill:#9d9a99;fill-opacity:1;fill-rule:nonzero;stroke:none"
         id="path74" /><path
         d="m 2320.08,98.8203 7.57,136.8707 429.93,-60.793 z"
         style="fill:#9d9a99;fill-opacity:1;fill-rule:nonzero;stroke:none"
         id="path76" /><path
         d="m 9263.26,64.6016 7.57,136.8674 363.64,-87.449 z"
         style="fill:#9d9a99;fill-opacity:1;fill-rule:nonzero;stroke:none"
         id="path78" /></g></g></svg>
