<?xml version="1.0" encoding="UTF-8" standalone="no"?>
<!-- Created with Inkscape (http://www.inkscape.org/) -->

<svg
   version="1.1"
   id="svg2"
   xml:space="preserve"
   width="1600"
   height="1066.6667"
   viewBox="0 0 1600 1066.6667"
   sodipodi:docname="photo.svg"
   inkscape:version="1.1.2 (0a00cf5339, 2022-02-04)"
   inkscape:export-filename="/home/paul/Nextcloud/GroupeRessources/animation/focus.png"
   inkscape:export-xdpi="149.664"
   inkscape:export-ydpi="149.664"
   xmlns:inkscape="http://www.inkscape.org/namespaces/inkscape"
   xmlns:sodipodi="http://sodipodi.sourceforge.net/DTD/sodipodi-0.dtd"
   xmlns="http://www.w3.org/2000/svg"
   xmlns:svg="http://www.w3.org/2000/svg"><defs
     id="defs6"><clipPath
       clipPathUnits="userSpaceOnUse"
       id="clipPath1151"><rect
         style="fill:#ff0000;stroke-width:1.31811;stroke-linecap:square"
         id="rect1153"
         width="1186.3634"
         height="788.59296"
         x="-1110.8821"
         y="-1773.1556" /></clipPath></defs><sodipodi:namedview
     id="namedview4"
     pagecolor="#ffffff"
     bordercolor="#666666"
     borderopacity="1.0"
     inkscape:pageshadow="2"
     inkscape:pageopacity="0.0"
     inkscape:pagecheckerboard="0"
     showgrid="false"
     inkscape:zoom="0.31968748"
     inkscape:cx="624.04696"
     inkscape:cy="179.86316"
     inkscape:window-width="1920"
     inkscape:window-height="1029"
     inkscape:window-x="0"
     inkscape:window-y="25"
     inkscape:window-maximized="1"
     inkscape:current-layer="g8" /><g
     id="g8"
     inkscape:groupmode="layer"
     inkscape:label="ink_ext_XXXXXX"
     transform="matrix(1.3333333,0,0,-1.3333333,0,1066.6667)"><path
       d="m 1124.24,777.187 62.12,-3.042 v -19.772 l 3.03,-739.164 -71.21,1.5211 13.64,6.0828 h -28.79 L 95.4547,28.8969 76.1363,19.3922 15.152,19.7711 13.6367,788.593 75.7578,789.354 121.212,774.145 1134.85,769.582 Z M 1.51523,0 H 1200 V 800 H 0 L 1.51523,0"
       style="fill:#000000;fill-opacity:1;fill-rule:nonzero;stroke:none;stroke-width:0.1"
       id="path14" /><path
       d="m 1060.99,784.787 v 15.209 h -12.13 v -15.209 h 12.13"
       style="fill:#9d9a99;fill-opacity:1;fill-rule:nonzero;stroke:none;stroke-width:0.1"
       id="path16" /><path
       d="m 1041.86,784.787 v 15.209 h -12.12 v -15.209 h 12.12"
       style="fill:#9d9a99;fill-opacity:1;fill-rule:nonzero;stroke:none;stroke-width:0.1"
       id="path18" /><path
       d="m 1022.73,784.787 v 15.209 h -12.12 v -15.209 h 12.12"
       style="fill:#9d9a99;fill-opacity:1;fill-rule:nonzero;stroke:none;stroke-width:0.1"
       id="path20" /><path
       d="m 1003.6,784.787 v 15.209 h -12.122 v -15.209 h 12.122"
       style="fill:#9d9a99;fill-opacity:1;fill-rule:nonzero;stroke:none;stroke-width:0.1"
       id="path22" /><path
       d="m 984.47,784.787 v 15.209 h -12.121 v -15.209 h 12.121"
       style="fill:#9d9a99;fill-opacity:1;fill-rule:nonzero;stroke:none;stroke-width:0.1"
       id="path24" /><path
       d="m 965.341,784.787 v 15.209 H 953.22 v -15.209 h 12.121"
       style="fill:#9d9a99;fill-opacity:1;fill-rule:nonzero;stroke:none;stroke-width:0.1"
       id="path26" /><path
       d="m 946.212,784.787 v 15.209 h -12.121 v -15.209 h 12.121"
       style="fill:#9d9a99;fill-opacity:1;fill-rule:nonzero;stroke:none;stroke-width:0.1"
       id="path28" /><path
       d="m 927.083,784.787 v 15.209 h -12.121 v -15.209 h 12.121"
       style="fill:#9d9a99;fill-opacity:1;fill-rule:nonzero;stroke:none;stroke-width:0.1"
       id="path30" /><path
       d="m 907.954,784.787 v 15.209 h -12.121 v -15.209 h 12.121"
       style="fill:#9d9a99;fill-opacity:1;fill-rule:nonzero;stroke:none;stroke-width:0.1"
       id="path32" /><path
       d="m 888.826,784.787 v 15.209 h -12.121 v -15.209 h 12.121"
       style="fill:#9d9a99;fill-opacity:1;fill-rule:nonzero;stroke:none;stroke-width:0.1"
       id="path34" /><path
       d="m 735.796,784.787 v 15.209 h -12.122 v -15.209 h 12.122"
       style="fill:#9d9a99;fill-opacity:1;fill-rule:nonzero;stroke:none;stroke-width:0.1"
       id="path36" /><path
       d="m 716.667,784.787 v 15.209 h -12.121 v -15.209 h 12.121"
       style="fill:#9d9a99;fill-opacity:1;fill-rule:nonzero;stroke:none;stroke-width:0.1"
       id="path38" /><path
       d="m 582.765,784.787 v 15.209 h -12.121 v -15.209 h 12.121"
       style="fill:#9d9a99;fill-opacity:1;fill-rule:nonzero;stroke:none;stroke-width:0.1"
       id="path40" /><path
       d="m 563.636,784.787 v 15.209 h -12.121 v -15.209 h 12.121"
       style="fill:#9d9a99;fill-opacity:1;fill-rule:nonzero;stroke:none;stroke-width:0.1"
       id="path42" /><path
       d="m 544.508,784.787 v 15.209 h -12.122 v -15.209 h 12.122"
       style="fill:#9d9a99;fill-opacity:1;fill-rule:nonzero;stroke:none;stroke-width:0.1"
       id="path44" /><path
       d="m 525.379,784.787 v 15.209 h -12.121 v -15.209 h 12.121"
       style="fill:#9d9a99;fill-opacity:1;fill-rule:nonzero;stroke:none;stroke-width:0.1"
       id="path46" /><path
       d="m 506.25,784.787 v 15.209 h -12.121 v -15.209 h 12.121"
       style="fill:#9d9a99;fill-opacity:1;fill-rule:nonzero;stroke:none;stroke-width:0.1"
       id="path48" /><path
       d="m 487.121,784.787 v 15.209 H 475 v -15.209 h 12.121"
       style="fill:#9d9a99;fill-opacity:1;fill-rule:nonzero;stroke:none;stroke-width:0.1"
       id="path50" /><path
       d="m 467.993,784.787 v 15.209 h -12.122 v -15.209 h 12.122"
       style="fill:#9d9a99;fill-opacity:1;fill-rule:nonzero;stroke:none;stroke-width:0.1"
       id="path52" /><path
       d="m 448.864,784.787 v 15.209 h -12.121 v -15.209 h 12.121"
       style="fill:#9d9a99;fill-opacity:1;fill-rule:nonzero;stroke:none;stroke-width:0.1"
       id="path54" /><path
       d="m 429.735,784.787 v 15.209 h -12.121 v -15.209 h 12.121"
       style="fill:#9d9a99;fill-opacity:1;fill-rule:nonzero;stroke:none;stroke-width:0.1"
       id="path56" /><path
       d="m 410.606,784.787 v 15.209 h -12.121 v -15.209 h 12.121"
       style="fill:#9d9a99;fill-opacity:1;fill-rule:nonzero;stroke:none;stroke-width:0.1"
       id="path58" /><path
       d="m 391.478,784.787 v 15.209 h -12.122 v -15.209 h 12.122"
       style="fill:#9d9a99;fill-opacity:1;fill-rule:nonzero;stroke:none;stroke-width:0.1"
       id="path60" /><path
       d="m 372.349,784.787 v 15.209 h -12.121 v -15.209 h 12.121"
       style="fill:#9d9a99;fill-opacity:1;fill-rule:nonzero;stroke:none;stroke-width:0.1"
       id="path62" /><path
       d="m 353.22,784.787 v 15.209 h -12.121 v -15.209 h 12.121"
       style="fill:#9d9a99;fill-opacity:1;fill-rule:nonzero;stroke:none;stroke-width:0.1"
       id="path64" /><path
       d="m 334.091,784.787 v 15.209 H 321.97 v -15.209 h 12.121"
       style="fill:#9d9a99;fill-opacity:1;fill-rule:nonzero;stroke:none;stroke-width:0.1"
       id="path66" /><path
       d="m 295.833,784.787 v 15.209 h -12.121 v -15.209 h 12.121"
       style="fill:#9d9a99;fill-opacity:1;fill-rule:nonzero;stroke:none;stroke-width:0.1"
       id="path68" /><path
       d="m 276.705,784.787 v 15.209 h -12.122 v -15.209 h 12.122"
       style="fill:#9d9a99;fill-opacity:1;fill-rule:nonzero;stroke:none;stroke-width:0.1"
       id="path70" /><path
       d="m 257.576,784.787 v 15.209 h -12.121 v -15.209 h 12.121"
       style="fill:#9d9a99;fill-opacity:1;fill-rule:nonzero;stroke:none;stroke-width:0.1"
       id="path72" /><path
       d="m 219.318,784.787 v 15.209 h -12.121 v -15.209 h 12.121"
       style="fill:#9d9a99;fill-opacity:1;fill-rule:nonzero;stroke:none;stroke-width:0.1"
       id="path74" /><path
       d="m 232.008,9.88203 0.757,13.68707 42.993,-6.0793 z"
       style="fill:#9d9a99;fill-opacity:1;fill-rule:nonzero;stroke:none;stroke-width:0.1"
       id="path76" /><path
       d="m 926.326,6.46016 0.757,13.68674 36.364,-8.7449 z"
       style="fill:#9d9a99;fill-opacity:1;fill-rule:nonzero;stroke:none;stroke-width:0.1"
       id="path78" /><g
       id="g1498"
       transform="matrix(2.7474896,0,0,2.7474896,-14.03671,-28.856385)"
       style="fill:#ffffff"><path
         d="m 416.68925,275.029 c 0,0.412 -0.336,0.746 -0.746,0.746 h -27.387 c -0.412,0 -0.748,-0.334 -0.748,-0.746 V 261.98 c 0,-0.411 0.336,-0.745 0.748,-0.745 h 27.387 c 0.41,0 0.746,0.334 0.746,0.745 z m -29.826,-13.049 v 13.049 c 0,0.934 0.76,1.692 1.693,1.692 h 27.387 c 0.934,0 1.693,-0.758 1.693,-1.692 V 261.98 c 0,-0.933 -0.759,-1.692 -1.693,-1.692 h -27.387 c -0.933,0 -1.693,0.759 -1.693,1.692"
         style="fill:#ffffff;fill-opacity:1;fill-rule:nonzero;stroke:none;stroke-width:0.1"
         id="path134" /><path
         d="m 417.16225,264.105 v 0.946 h 1.221 c 0.41,0 0.746,0.334 0.746,0.745 v 5.417 c 0,0.411 -0.336,0.745 -0.746,0.745 h -1.221 v 0.947 h 1.221 c 0.931,0 1.691,-0.759 1.691,-1.692 v -5.417 c 0,-0.933 -0.76,-1.691 -1.691,-1.691 h -1.221"
         style="fill:#ffffff;fill-opacity:1;fill-rule:nonzero;stroke:none;stroke-width:0.1"
         id="path136" /><path
         d="m 396.60525,264.013 v 8.983 h 5.239 v -8.983 z m -6.015,0 v 8.983 h 5.205 v -8.983 h -5.205"
         style="fill:#ffffff;fill-opacity:1;fill-rule:nonzero;stroke:none;stroke-width:0.1"
         id="path138" /><path
         d="m 14.2145,209.484 h -1 v 79.498 h 79.498 v -1 h -78.498 v -78.498"
         style="fill:#ffffff;fill-opacity:1;fill-rule:nonzero;stroke:none;stroke-width:0.1"
         id="path140" /><path
         d="m 433.96725,209.484 h -1 v 78.498 h -78.498 v 1 h 79.498 v -79.498"
         style="fill:#ffffff;fill-opacity:1;fill-rule:nonzero;stroke:none;stroke-width:0.1"
         id="path142" /><path
         d="M 94.0727,22.8879 H 14.5746 v 79.4971 h 1 V 23.8879 h 78.4981 v -1"
         style="fill:#ffffff;fill-opacity:1;fill-rule:nonzero;stroke:none;stroke-width:0.1"
         id="path144" /><path
         d="m 435.32625,22.8879 h -79.498 v 1 h 78.498 v 78.4971 h 1 V 22.8879"
         style="fill:#ffffff;fill-opacity:1;fill-rule:nonzero;stroke:none;stroke-width:0.1"
         id="path146" /><path
         d="m 260.7922,177.587 h -1 v 9.229 h -9.229 v 1 h 10.229 v -10.229"
         style="fill:#ffffff;fill-opacity:1;fill-rule:nonzero;stroke:none;stroke-width:0.1"
         id="path148" /><path
         d="m 260.7922,124.054 h -10.229 v 1 h 9.229 v 9.228 h 1 v -10.228"
         style="fill:#ffffff;fill-opacity:1;fill-rule:nonzero;stroke:none;stroke-width:0.1"
         id="path150" /><path
         d="m 198.0312,177.587 h -1 v 10.229 h 10.227 v -1 h -9.227 v -9.229"
         style="fill:#ffffff;fill-opacity:1;fill-rule:nonzero;stroke:none;stroke-width:0.1"
         id="path152" /><path
         d="m 207.2582,124.054 h -10.227 v 10.228 h 1 v -9.228 h 9.227 v -1"
         style="fill:#ffffff;fill-opacity:1;fill-rule:nonzero;stroke:none;stroke-width:0.1"
         id="path154" /><path
         d="m 249.4302,161.08 c -1.896,7.587 -7.787,13.478 -15.375,15.375 l 0.243,0.97 c 7.947,-1.986 14.117,-8.157 16.103,-16.103 l -0.971,-0.242"
         style="fill:#ffffff;fill-opacity:1;fill-rule:nonzero;stroke:none;stroke-width:0.1"
         id="path156" /><path
         d="m 208.3912,161.08 -0.969,0.242 c 1.984,7.946 8.154,14.117 16.102,16.103 l 0.242,-0.97 c -7.588,-1.897 -13.479,-7.788 -15.375,-15.375"
         style="fill:#ffffff;fill-opacity:1;fill-rule:nonzero;stroke:none;stroke-width:0.1"
         id="path158" /><path
         d="m 223.5242,134.445 c -7.946,1.985 -14.116,8.155 -16.102,16.102 l 0.969,0.243 c 1.897,-7.588 7.789,-13.479 15.375,-15.374 l -0.242,-0.971"
         style="fill:#ffffff;fill-opacity:1;fill-rule:nonzero;stroke:none;stroke-width:0.1"
         id="path160" /><path
         d="m 234.2982,134.445 -0.243,0.971 c 7.588,1.895 13.479,7.786 15.375,15.374 l 0.971,-0.243 c -1.986,-7.947 -8.156,-14.117 -16.103,-16.102"
         style="fill:#ffffff;fill-opacity:1;fill-rule:nonzero;stroke:none;stroke-width:0.1"
         id="path162" /><path
         d="m 61.0742,33.1762 -8.1418,8.1429 -4.575,-4.575 -7.9902,7.9911 -11.5586,-11.559 h 32.2656"
         style="fill:#ffffff;fill-opacity:1;fill-rule:nonzero;stroke:none;stroke-width:0.1"
         id="path164" /><path
         d="M 29.282,33.65 H 60.6008 V 53.334 H 29.282 Z M 61.073,32.7039 H 28.8086 c -0.2606,0 -0.4727,0.2121 -0.4727,0.4723 V 53.807 c 0,0.2621 0.2121,0.4731 0.4727,0.4731 H 61.073 c 0.2622,0 0.4739,-0.211 0.4739,-0.4731 V 33.1762 c 0,-0.2602 -0.2117,-0.4723 -0.4739,-0.4723"
         style="fill:#ffffff;fill-opacity:1;fill-rule:nonzero;stroke:none;stroke-width:0.1"
         id="path166" /><path
         d="m 67.7398,261.272 c -3.1621,0 -5.7324,2.57 -5.7324,5.733 0,3.159 2.5703,5.731 5.7324,5.731 3.1602,0 5.7305,-2.572 5.7305,-5.731 0,-3.163 -2.5703,-5.733 -5.7305,-5.733"
         style="fill:#ffffff;fill-opacity:1;fill-rule:nonzero;stroke:none;stroke-width:0.1"
         id="path168" /><path
         d="m 57.9977,275.345 c -1.9688,0 -3.5723,-1.602 -3.5723,-3.571 v -9.54 c 0,-1.97 1.6035,-3.57 3.5723,-3.57 h 19.4824 c 1.9687,0 3.5722,1.6 3.5722,3.57 v 9.54 c 0,1.969 -1.6035,3.571 -3.5722,3.571 H 74.191 l -0.0527,0.412 c -0.1914,1.476 -1.4492,2.588 -2.9278,2.588 h -6.9414 c -1.4785,0 -2.7382,-1.112 -2.9296,-2.588 l -0.0547,-0.412 z M 77.4801,257.716 H 57.9977 c -2.4903,0 -4.5176,2.028 -4.5176,4.518 v 9.54 c 0,2.491 2.0273,4.518 4.5176,4.518 h 2.4785 c 0.4179,1.737 1.9804,3.001 3.7929,3.001 h 6.9414 c 1.8125,0 3.375,-1.264 3.7911,-3.001 h 2.4785 c 2.4922,0 4.5195,-2.027 4.5195,-4.518 v -9.54 c 0,-2.49 -2.0273,-4.518 -4.5195,-4.518"
         style="fill:#ffffff;fill-opacity:1;fill-rule:nonzero;stroke:none;stroke-width:0.1"
         id="path170" /><path
         d="m 400.52125,70.232 0.293,-0.3031 c 0.149,-0.1508 3.643,-3.707 8.051,-3.707 4.406,0 7.902,3.5562 8.049,3.707 l 0.295,0.3031 -0.295,0.3032 c -0.147,0.1519 -3.643,3.7058 -8.049,3.7058 -4.408,0 -7.902,-3.5539 -8.051,-3.7058 z m 8.344,-4.5199 c -4.619,0 -8.264,3.7039 -8.416,3.8617 l -0.639,0.6582 0.639,0.659 c 0.152,0.157 3.795,3.861 8.416,3.861 4.619,0 8.262,-3.704 8.414,-3.861 l 0.641,-0.659 -0.641,-0.659 c -0.152,-0.157 -3.795,-3.8609 -8.414,-3.8609"
         style="fill:#ffffff;fill-opacity:1;fill-rule:nonzero;stroke:none;stroke-width:0.1"
         id="path172" /><path
         d="m 408.86525,70.777 c -0.301,0 -0.545,-0.2442 -0.545,-0.545 0,-0.3011 0.244,-0.5449 0.545,-0.5449 0.299,0 0.545,0.2438 0.545,0.5449 0,0.3008 -0.246,0.545 -0.545,0.545"
         style="fill:#ffffff;fill-opacity:1;fill-rule:nonzero;stroke:none;stroke-width:0.1"
         id="path174" /><path
         d="m 408.86525,69.177 c -0.582,0 -1.057,0.473 -1.057,1.055 0,0.5821 0.475,1.0559 1.057,1.0559 0.58,0 1.055,-0.4738 1.055,-1.0559 0,-0.582 -0.475,-1.055 -1.055,-1.055 z m 2.154,3.2109 c -0.574,0.5742 -1.34,0.893 -2.154,0.893 -0.406,0 -0.801,-0.0797 -1.174,-0.2348 l -0.449,-0.1871 0.41,-0.2641 c 0.053,-0.034 0.1,-0.0711 0.139,-0.1109 0.158,-0.157 0.244,-0.3668 0.244,-0.5899 0,-0.223 -0.086,-0.432 -0.244,-0.5882 -0.315,-0.3161 -0.862,-0.3161 -1.178,0 -0.041,0.0402 -0.078,0.0863 -0.111,0.139 l -0.264,0.4121 -0.187,-0.4511 c -0.477,-1.1469 -0.219,-2.452 0.658,-3.3278 0.576,-0.5761 1.34,-0.8941 2.154,-0.8941 0.815,0 1.58,0.318 2.156,0.8941 1.188,1.1867 1.188,3.1207 0,4.3098"
         style="fill:#ffffff;fill-opacity:1;fill-rule:nonzero;stroke:none;stroke-width:0.1"
         id="path176" /><path
         d="M 74.8789,33.65 H 106.197 V 53.3332 H 74.8789 Z M 106.67,32.7039 H 74.4063 c -0.2618,0 -0.4739,0.2109 -0.4739,0.4731 v 20.6289 c 0,0.2621 0.2121,0.4742 0.4739,0.4742 H 106.67 c 0.262,0 0.474,-0.2121 0.474,-0.4742 V 33.177 c 0,-0.2622 -0.212,-0.4731 -0.474,-0.4731"
         style="fill:#ffffff;fill-opacity:1;fill-rule:nonzero;stroke:none;stroke-width:0.1"
         id="path178" /><path
         d="m 88.166,50.9199 c -0.9472,0 -1.8515,-0.184 -2.6855,-0.507 3.5781,-0.284 6.3945,-3.2707 6.3945,-6.9207 0,-3.6524 -2.8176,-6.6391 -6.3945,-6.9223 0.834,-0.3219 1.7383,-0.5078 2.6855,-0.5078 4.1035,0 7.4297,3.327 7.4297,7.4301 0,4.1019 -3.3262,7.4277 -7.4297,7.4277"
         style="fill:#ffffff;fill-opacity:1;fill-rule:nonzero;stroke:none;stroke-width:0.1"
         id="path180" /><path
         d="m 120.477,33.65 h 31.317 v 19.6832 h -31.317 z m 31.791,-0.9461 h -32.265 c -0.262,0 -0.474,0.2121 -0.474,0.4723 v 20.6297 c 0,0.2621 0.212,0.4742 0.474,0.4742 h 32.265 c 0.261,0 0.473,-0.2121 0.473,-0.4742 V 33.1762 c 0,-0.2602 -0.212,-0.4723 -0.473,-0.4723"
         style="fill:#ffffff;fill-opacity:1;fill-rule:nonzero;stroke:none;stroke-width:0.1"
         id="path182" /><path
         d="m 136.135,39.0801 c -2.433,0 -4.412,1.9789 -4.412,4.4121 0,2.4328 1.979,4.4117 4.412,4.4117 2.433,0 4.413,-1.9789 4.413,-4.4117 0,-2.4332 -1.98,-4.4121 -4.413,-4.4121"
         style="fill:#ffffff;fill-opacity:1;fill-rule:nonzero;stroke:none;stroke-width:0.1"
         id="path184" /><path
         d="m 136.135,48.959 c -0.262,0 -0.474,0.2109 -0.474,0.473 v 2.5321 c 0,0.2621 0.212,0.4738 0.474,0.4738 0.262,0 0.473,-0.2117 0.473,-0.4738 V 49.432 c 0,-0.2621 -0.211,-0.473 -0.473,-0.473"
         style="fill:#ffffff;fill-opacity:1;fill-rule:nonzero;stroke:none;stroke-width:0.1"
         id="path186" /><path
         d="m 136.135,34.5441 c -0.262,0 -0.474,0.2129 -0.474,0.4739 v 2.5332 c 0,0.2609 0.212,0.4726 0.474,0.4726 0.262,0 0.473,-0.2117 0.473,-0.4726 V 35.018 c 0,-0.261 -0.211,-0.4739 -0.473,-0.4739"
         style="fill:#ffffff;fill-opacity:1;fill-rule:nonzero;stroke:none;stroke-width:0.1"
         id="path188" /><path
         d="m 144.608,43.018 h -2.533 c -0.261,0 -0.472,0.2121 -0.472,0.4742 0,0.2598 0.211,0.4719 0.472,0.4719 h 2.533 c 0.261,0 0.473,-0.2121 0.473,-0.4719 0,-0.2621 -0.212,-0.4742 -0.473,-0.4742"
         style="fill:#ffffff;fill-opacity:1;fill-rule:nonzero;stroke:none;stroke-width:0.1"
         id="path190" /><path
         d="m 130.194,43.018 h -2.532 c -0.262,0 -0.474,0.2121 -0.474,0.4742 0,0.2598 0.212,0.4719 0.474,0.4719 h 2.532 c 0.262,0 0.474,-0.2121 0.474,-0.4719 0,-0.2621 -0.212,-0.4742 -0.474,-0.4742"
         style="fill:#ffffff;fill-opacity:1;fill-rule:nonzero;stroke:none;stroke-width:0.1"
         id="path192" /><path
         d="m 140.336,47.2191 c -0.121,0 -0.242,0.0457 -0.335,0.1387 -0.185,0.1852 -0.185,0.4844 0,0.6692 l 1.791,1.7902 c 0.185,0.1848 0.484,0.1848 0.668,0 0.186,-0.1844 0.186,-0.4832 0,-0.6684 l -1.789,-1.791 c -0.093,-0.093 -0.214,-0.1387 -0.335,-0.1387"
         style="fill:#ffffff;fill-opacity:1;fill-rule:nonzero;stroke:none;stroke-width:0.1"
         id="path194" /><path
         d="m 130.144,37.027 c -0.122,0 -0.243,0.046 -0.334,0.139 -0.186,0.184 -0.186,0.4828 0,0.6692 l 1.79,1.791 c 0.184,0.184 0.484,0.184 0.669,0 0.185,-0.1864 0.185,-0.4852 0,-0.6703 l -1.79,-1.7899 c -0.093,-0.093 -0.214,-0.139 -0.335,-0.139"
         style="fill:#ffffff;fill-opacity:1;fill-rule:nonzero;stroke:none;stroke-width:0.1"
         id="path196" /><path
         d="m 142.126,37.027 c -0.121,0 -0.242,0.046 -0.334,0.139 l -1.791,1.7899 c -0.185,0.1851 -0.185,0.4839 0,0.6703 0.186,0.184 0.484,0.184 0.67,0 l 1.789,-1.791 c 0.186,-0.1864 0.186,-0.4852 0,-0.6692 -0.092,-0.093 -0.213,-0.139 -0.334,-0.139"
         style="fill:#ffffff;fill-opacity:1;fill-rule:nonzero;stroke:none;stroke-width:0.1"
         id="path198" /><path
         d="m 131.935,47.2191 c -0.122,0 -0.244,0.0457 -0.335,0.1387 l -1.79,1.791 c -0.186,0.1852 -0.186,0.484 0,0.6684 0.184,0.1848 0.484,0.1848 0.669,0 l 1.79,-1.7902 c 0.185,-0.1848 0.185,-0.484 0,-0.6692 -0.092,-0.093 -0.214,-0.1387 -0.334,-0.1387"
         style="fill:#ffffff;fill-opacity:1;fill-rule:nonzero;stroke:none;stroke-width:0.1"
         id="path200" /><path
         d="m 413.46925,104.723 c -0.629,0 -1.227,0.208 -1.723,0.598 -0.58,0.46 -0.949,1.12 -1.035,1.856 -0.088,0.739 0.117,1.467 0.578,2.048 0.922,1.168 2.738,1.381 3.904,0.459 0.584,-0.46 0.951,-1.12 1.037,-1.857 0.088,-0.74 -0.117,-1.467 -0.578,-2.048 -0.531,-0.671 -1.326,-1.056 -2.183,-1.056"
         style="fill:#ffffff;fill-opacity:1;fill-rule:nonzero;stroke:none;stroke-width:0.1"
         id="path202" /><path
         d="m 411.84425,94.9672 c -0.303,0 -0.549,0.2437 -0.549,0.5469 v 2.73 l -1.733,1.352 c 0,8e-4 0,8e-4 -0.002,8e-4 l -2.853,2.1671 c -0.117,0.087 -0.194,0.221 -0.211,0.365 -0.022,0.146 0.019,0.292 0.111,0.408 l 2.451,3.112 c 0.776,1.02 2.246,1.224 3.278,0.443 1.029,-0.782 1.23,-2.255 0.451,-3.283 l -2.119,-2.688 1.511,-1.1788 c 0.133,-0.1063 0.211,-0.2633 0.211,-0.432 v -2.9961 c 0,-0.3032 -0.244,-0.5469 -0.546,-0.5469"
         style="fill:#ffffff;fill-opacity:1;fill-rule:nonzero;stroke:none;stroke-width:0.1"
         id="path204" /><path
         d="m 404.97825,99.002 h -2.951 c -0.307,0 -0.549,0.2441 -0.549,0.546 0,0.302 0.242,0.548 0.549,0.548 h 2.682 l 1.896,2.439 c 0.186,0.238 0.528,0.282 0.768,0.096 0.236,-0.186 0.283,-0.53 0.097,-0.766 l -2.058,-2.6521 c -0.104,-0.1348 -0.264,-0.2109 -0.434,-0.2109"
         style="fill:#ffffff;fill-opacity:1;fill-rule:nonzero;stroke:none;stroke-width:0.1"
         id="path206" /><path
         d="m 405.87525,103.889 c -0.114,0 -0.227,0.035 -0.326,0.109 -0.241,0.179 -0.293,0.521 -0.114,0.766 l 1.18,1.582 c 0.102,0.139 0.266,0.223 0.438,0.223 h 4.185 c 0.303,0 0.547,-0.245 0.547,-0.547 0,-0.304 -0.244,-0.549 -0.547,-0.549 h -3.91 l -1.014,-1.363 c -0.107,-0.145 -0.273,-0.221 -0.439,-0.221"
         style="fill:#ffffff;fill-opacity:1;fill-rule:nonzero;stroke:none;stroke-width:0.1"
         id="path208" /><path
         d="m 415.20925,100.503 h -2.53 c -0.304,0 -0.546,0.244 -0.546,0.547 v 3.159 c 0,0.302 0.242,0.546 0.546,0.546 0.303,0 0.547,-0.244 0.547,-0.546 v -2.612 h 1.983 c 0.302,0 0.547,-0.245 0.547,-0.547 0,-0.303 -0.245,-0.547 -0.547,-0.547"
         style="fill:#ffffff;fill-opacity:1;fill-rule:nonzero;stroke:none;stroke-width:0.1"
         id="path210" /><path
         d="m 166.073,33.65 h 31.316 v 19.6832 h -31.316 z m 31.791,-0.9461 H 165.6 c -0.262,0 -0.474,0.2109 -0.474,0.4731 v 20.6289 c 0,0.2621 0.212,0.4742 0.474,0.4742 h 32.264 c 0.261,0 0.472,-0.2121 0.472,-0.4742 V 33.177 c 0,-0.2622 -0.211,-0.4731 -0.472,-0.4731"
         style="fill:#ffffff;fill-opacity:1;fill-rule:nonzero;stroke:none;stroke-width:0.1"
         id="path212" /><path
         d="m 181.732,48.5512 c -0.261,0 -0.473,0.2109 -0.473,0.4738 v 2.234 c 0,0.2629 0.212,0.4738 0.473,0.4738 0.262,0 0.473,-0.2109 0.473,-0.4738 v -2.234 c 0,-0.2629 -0.211,-0.4738 -0.473,-0.4738"
         style="fill:#ffffff;fill-opacity:1;fill-rule:nonzero;stroke:none;stroke-width:0.1"
         id="path214" /><path
         d="m 189.213,43.3059 h -2.236 c -0.262,0 -0.475,0.2121 -0.475,0.4742 0,0.2609 0.213,0.473 0.475,0.473 h 2.236 c 0.262,0 0.473,-0.2121 0.473,-0.473 0,-0.2621 -0.211,-0.4742 -0.473,-0.4742"
         style="fill:#ffffff;fill-opacity:1;fill-rule:nonzero;stroke:none;stroke-width:0.1"
         id="path216" /><path
         d="m 176.487,43.3059 h -2.235 c -0.262,0 -0.473,0.2121 -0.473,0.4742 0,0.2609 0.211,0.473 0.473,0.473 h 2.235 c 0.262,0 0.474,-0.2121 0.474,-0.473 0,-0.2621 -0.212,-0.4742 -0.474,-0.4742"
         style="fill:#ffffff;fill-opacity:1;fill-rule:nonzero;stroke:none;stroke-width:0.1"
         id="path218" /><path
         d="m 185.44,47.0148 c -0.121,0 -0.242,0.0473 -0.334,0.1403 -0.186,0.184 -0.186,0.484 0,0.6687 l 1.58,1.5801 c 0.186,0.184 0.484,0.184 0.67,0 0.186,-0.1859 0.186,-0.4848 0,-0.6699 l -1.58,-1.5789 c -0.094,-0.093 -0.215,-0.1403 -0.336,-0.1403"
         style="fill:#ffffff;fill-opacity:1;fill-rule:nonzero;stroke:none;stroke-width:0.1"
         id="path220" /><path
         d="m 176.442,38.0172 c -0.121,0 -0.241,0.0469 -0.334,0.1387 -0.185,0.1839 -0.185,0.4839 0,0.6703 l 1.581,1.5808 c 0.185,0.184 0.485,0.184 0.669,0 0.186,-0.1859 0.186,-0.4851 0,-0.6699 l -1.581,-1.5812 c -0.092,-0.0918 -0.214,-0.1387 -0.335,-0.1387"
         style="fill:#ffffff;fill-opacity:1;fill-rule:nonzero;stroke:none;stroke-width:0.1"
         id="path222" /><path
         d="m 187.022,38.0172 c -0.121,0 -0.242,0.0469 -0.336,0.1387 l -1.58,1.5812 c -0.186,0.1848 -0.186,0.484 0,0.6699 0.184,0.184 0.484,0.184 0.67,0 l 1.58,-1.5808 c 0.186,-0.1864 0.186,-0.4864 0,-0.6703 -0.092,-0.0918 -0.213,-0.1387 -0.334,-0.1387"
         style="fill:#ffffff;fill-opacity:1;fill-rule:nonzero;stroke:none;stroke-width:0.1"
         id="path224" /><path
         d="m 178.023,47.0148 c -0.121,0 -0.242,0.0473 -0.334,0.1403 l -1.581,1.5789 c -0.185,0.1851 -0.185,0.484 0,0.6699 0.185,0.184 0.485,0.184 0.669,0 l 1.581,-1.5801 c 0.186,-0.1847 0.186,-0.4847 0,-0.6687 -0.092,-0.093 -0.213,-0.1403 -0.335,-0.1403"
         style="fill:#ffffff;fill-opacity:1;fill-rule:nonzero;stroke:none;stroke-width:0.1"
         id="path226" /><path
         d="m 183.849,39.1621 h -4.233 v 1.3008 c -1.139,0.725 -1.835,1.9703 -1.835,3.3172 0,2.1789 1.773,3.9508 3.951,3.9508 2.179,0 3.95,-1.7719 3.95,-3.9508 0,-1.3469 -0.695,-2.593 -1.833,-3.3172 v -1.3008"
         style="fill:#ffffff;fill-opacity:1;fill-rule:nonzero;stroke:none;stroke-width:0.1"
         id="path228" /><path
         d="m 183.375,37.2059 h -3.286 c -0.262,0 -0.474,0.2121 -0.474,0.4722 0,0.2629 0.212,0.4739 0.474,0.4739 h 3.286 c 0.262,0 0.473,-0.211 0.473,-0.4739 0,-0.2601 -0.211,-0.4722 -0.473,-0.4722"
         style="fill:#ffffff;fill-opacity:1;fill-rule:nonzero;stroke:none;stroke-width:0.1"
         id="path230" /><path
         d="m 182.788,35.2512 h -2.112 c -0.262,0 -0.473,0.2109 -0.473,0.4718 0,0.2629 0.211,0.4739 0.473,0.4739 h 2.112 c 0.262,0 0.474,-0.211 0.474,-0.4739 0,-0.2609 -0.212,-0.4718 -0.474,-0.4718"
         style="fill:#ffffff;fill-opacity:1;fill-rule:nonzero;stroke:none;stroke-width:0.1"
         id="path232" /><path
         d="m 24.8254,270.525 v -11.39 l 4.6504,2.473 v 6.445 z M 23.8801,257.56 v 14.541 l 6.541,-3.478 v -7.584 l -6.541,-3.479"
         style="fill:#ffffff;fill-opacity:1;fill-rule:nonzero;stroke:none;stroke-width:0.1"
         id="path234" /><path
         d="m 30.4211,258.821 h 16.543 v 12.018 h -16.543 z m 17.4883,-0.946 H 29.4758 v 13.912 h 18.4336 v -13.912"
         style="fill:#ffffff;fill-opacity:1;fill-rule:nonzero;stroke:none;stroke-width:0.1"
         id="path236" /><path
         d="M 43.9895,261.604 H 33.3953 v 6.452 h 10.5942 v -6.452"
         style="fill:#ffffff;fill-opacity:1;fill-rule:nonzero;stroke:none;stroke-width:0.1"
         id="path238" /><path
         d="m 34.8605,278.504 c -1.8515,0 -3.3593,-1.508 -3.3593,-3.359 0,-1.852 1.5078,-3.358 3.3593,-3.358 1.8512,0 3.359,1.506 3.359,3.358 0,1.851 -1.5078,3.359 -3.359,3.359 z m 0,-7.665 c -2.3734,0 -4.307,1.932 -4.307,4.306 0,2.374 1.9336,4.305 4.307,4.305 2.3731,0 4.3043,-1.931 4.3043,-4.305 0,-2.374 -1.9312,-4.306 -4.3043,-4.306"
         style="fill:#ffffff;fill-opacity:1;fill-rule:nonzero;stroke:none;stroke-width:0.1"
         id="path240" /><path
         d="m 42.5242,278.504 c -1.8512,0 -3.3594,-1.508 -3.3594,-3.359 0,-1.852 1.5082,-3.358 3.3594,-3.358 1.852,0 3.3598,1.506 3.3598,3.358 0,1.851 -1.5078,3.359 -3.3598,3.359 z m 0,-7.665 c -2.375,0 -4.3047,1.932 -4.3047,4.306 0,2.374 1.9297,4.305 4.3047,4.305 2.3735,0 4.3051,-1.931 4.3051,-4.305 0,-2.374 -1.9316,-4.306 -4.3051,-4.306"
         style="fill:#ffffff;fill-opacity:1;fill-rule:nonzero;stroke:none;stroke-width:0.1"
         id="path242" /><path
         d="m 39.0492,86.732 h -1 v 157.41 h 1 V 86.732"
         style="fill:#ffffff;fill-opacity:1;fill-rule:nonzero;stroke:none;stroke-width:0.1"
         id="path244" /><path
         d="m 45.0434,243.642 h -6.4942 v 1 h 6.4942 v -1"
         style="fill:#ffffff;fill-opacity:1;fill-rule:nonzero;stroke:none;stroke-width:0.1"
         id="path246" /><path
         d="m 41.7965,234.648 h -3.2473 v 1 h 3.2473 v -1"
         style="fill:#ffffff;fill-opacity:1;fill-rule:nonzero;stroke:none;stroke-width:0.1"
         id="path248" /><path
         d="m 41.7965,230.15 h -3.2473 v 1 h 3.2473 v -1"
         style="fill:#ffffff;fill-opacity:1;fill-rule:nonzero;stroke:none;stroke-width:0.1"
         id="path250" /><path
         d="m 41.7965,225.652 h -3.2473 v 1 h 3.2473 v -1"
         style="fill:#ffffff;fill-opacity:1;fill-rule:nonzero;stroke:none;stroke-width:0.1"
         id="path252" /><path
         d="m 41.7965,239.145 h -3.2473 v 1 h 3.2473 v -1"
         style="fill:#ffffff;fill-opacity:1;fill-rule:nonzero;stroke:none;stroke-width:0.1"
         id="path254" /><path
         d="m 45.0434,221.155 h -6.4942 v 1 h 6.4942 v -1"
         style="fill:#ffffff;fill-opacity:1;fill-rule:nonzero;stroke:none;stroke-width:0.1"
         id="path256" /><path
         d="m 41.7965,212.16 h -3.2473 v 1 h 3.2473 v -1"
         style="fill:#ffffff;fill-opacity:1;fill-rule:nonzero;stroke:none;stroke-width:0.1"
         id="path258" /><path
         d="m 41.7965,207.663 h -3.2473 v 1 h 3.2473 v -1"
         style="fill:#ffffff;fill-opacity:1;fill-rule:nonzero;stroke:none;stroke-width:0.1"
         id="path260" /><path
         d="m 41.7965,203.165 h -3.2473 v 1 h 3.2473 v -1"
         style="fill:#ffffff;fill-opacity:1;fill-rule:nonzero;stroke:none;stroke-width:0.1"
         id="path262" /><path
         d="m 41.7965,216.658 h -3.2473 v 1 h 3.2473 v -1"
         style="fill:#ffffff;fill-opacity:1;fill-rule:nonzero;stroke:none;stroke-width:0.1"
         id="path264" /><path
         d="m 45.0434,198.668 h -6.4942 v 1 h 6.4942 v -1"
         style="fill:#ffffff;fill-opacity:1;fill-rule:nonzero;stroke:none;stroke-width:0.1"
         id="path266" /><path
         d="m 41.7965,189.673 h -3.2473 v 1 h 3.2473 v -1"
         style="fill:#ffffff;fill-opacity:1;fill-rule:nonzero;stroke:none;stroke-width:0.1"
         id="path268" /><path
         d="m 41.7965,185.175 h -3.2473 v 1 h 3.2473 v -1"
         style="fill:#ffffff;fill-opacity:1;fill-rule:nonzero;stroke:none;stroke-width:0.1"
         id="path270" /><path
         d="m 41.7965,180.678 h -3.2473 v 1 h 3.2473 v -1"
         style="fill:#ffffff;fill-opacity:1;fill-rule:nonzero;stroke:none;stroke-width:0.1"
         id="path272" /><path
         d="m 41.7965,194.17 h -3.2473 v 1 h 3.2473 v -1"
         style="fill:#ffffff;fill-opacity:1;fill-rule:nonzero;stroke:none;stroke-width:0.1"
         id="path274" /><path
         d="m 45.0434,176.18 h -6.4942 v 1 h 6.4942 v -1"
         style="fill:#ffffff;fill-opacity:1;fill-rule:nonzero;stroke:none;stroke-width:0.1"
         id="path276" /><path
         d="m 41.7965,167.186 h -3.2473 v 1 h 3.2473 v -1"
         style="fill:#ffffff;fill-opacity:1;fill-rule:nonzero;stroke:none;stroke-width:0.1"
         id="path278" /><path
         d="m 41.7965,162.688 h -3.2473 v 1 h 3.2473 v -1"
         style="fill:#ffffff;fill-opacity:1;fill-rule:nonzero;stroke:none;stroke-width:0.1"
         id="path280" /><path
         d="m 41.7965,158.191 h -3.2473 v 1 h 3.2473 v -1"
         style="fill:#ffffff;fill-opacity:1;fill-rule:nonzero;stroke:none;stroke-width:0.1"
         id="path282" /><path
         d="m 41.7965,171.683 h -3.2473 v 1 h 3.2473 v -1"
         style="fill:#ffffff;fill-opacity:1;fill-rule:nonzero;stroke:none;stroke-width:0.1"
         id="path284" /><path
         d="m 45.0434,153.694 h -6.4942 v 1 h 6.4942 v -1"
         style="fill:#ffffff;fill-opacity:1;fill-rule:nonzero;stroke:none;stroke-width:0.1"
         id="path286" /><path
         d="m 41.7965,144.699 h -3.2473 v 1 h 3.2473 v -1"
         style="fill:#ffffff;fill-opacity:1;fill-rule:nonzero;stroke:none;stroke-width:0.1"
         id="path288" /><path
         d="m 41.7965,140.201 h -3.2473 v 1 h 3.2473 v -1"
         style="fill:#ffffff;fill-opacity:1;fill-rule:nonzero;stroke:none;stroke-width:0.1"
         id="path290" /><path
         d="m 41.7965,135.704 h -3.2473 v 1 h 3.2473 v -1"
         style="fill:#ffffff;fill-opacity:1;fill-rule:nonzero;stroke:none;stroke-width:0.1"
         id="path292" /><path
         d="m 41.7965,149.196 h -3.2473 v 1 h 3.2473 v -1"
         style="fill:#ffffff;fill-opacity:1;fill-rule:nonzero;stroke:none;stroke-width:0.1"
         id="path294" /><path
         d="m 45.0434,131.207 h -6.4942 v 1 h 6.4942 v -1"
         style="fill:#ffffff;fill-opacity:1;fill-rule:nonzero;stroke:none;stroke-width:0.1"
         id="path296" /><path
         d="m 41.7965,122.211 h -3.2473 v 1 h 3.2473 v -1"
         style="fill:#ffffff;fill-opacity:1;fill-rule:nonzero;stroke:none;stroke-width:0.1"
         id="path298" /><path
         d="m 41.7965,117.714 h -3.2473 v 1 h 3.2473 v -1"
         style="fill:#ffffff;fill-opacity:1;fill-rule:nonzero;stroke:none;stroke-width:0.1"
         id="path300" /><path
         d="m 41.7965,113.216 h -3.2473 v 1 h 3.2473 v -1"
         style="fill:#ffffff;fill-opacity:1;fill-rule:nonzero;stroke:none;stroke-width:0.1"
         id="path302" /><path
         d="m 41.7965,126.709 h -3.2473 v 1 h 3.2473 v -1"
         style="fill:#ffffff;fill-opacity:1;fill-rule:nonzero;stroke:none;stroke-width:0.1"
         id="path304" /><path
         d="m 45.0434,108.719 h -6.4942 v 1 h 6.4942 v -1"
         style="fill:#ffffff;fill-opacity:1;fill-rule:nonzero;stroke:none;stroke-width:0.1"
         id="path306" /><path
         d="m 41.7965,99.7238 h -3.2473 v 1.0002 h 3.2473 v -1.0002"
         style="fill:#ffffff;fill-opacity:1;fill-rule:nonzero;stroke:none;stroke-width:0.1"
         id="path308" /><path
         d="m 41.7965,95.227 h -3.2473 v 1 h 3.2473 v -1"
         style="fill:#ffffff;fill-opacity:1;fill-rule:nonzero;stroke:none;stroke-width:0.1"
         id="path310" /><path
         d="m 41.7965,90.7289 h -3.2473 v 1 h 3.2473 v -1"
         style="fill:#ffffff;fill-opacity:1;fill-rule:nonzero;stroke:none;stroke-width:0.1"
         id="path312" /><path
         d="m 41.7965,104.222 h -3.2473 v 1 h 3.2473 v -1"
         style="fill:#ffffff;fill-opacity:1;fill-rule:nonzero;stroke:none;stroke-width:0.1"
         id="path314" /><path
         d="m 45.0434,86.232 h -6.4942 v 1 h 6.4942 v -1"
         style="fill:#ffffff;fill-opacity:1;fill-rule:nonzero;stroke:none;stroke-width:0.1"
         id="path316" /><path
         d="m 163.789,270.978 v -4.648 h -3.673 v 4.648 h 3.673"
         style="fill:#ffffff;fill-opacity:1;fill-rule:nonzero;stroke:none;stroke-width:0.1"
         id="path318" /><path
         d="m 171.066,270.978 v -4.648 h -3.673 v 4.648 h 3.673"
         style="fill:#ffffff;fill-opacity:1;fill-rule:nonzero;stroke:none;stroke-width:0.1"
         id="path320" /><path
         d="m 178.342,270.978 v -4.648 h -3.672 v 4.648 h 3.672"
         style="fill:#ffffff;fill-opacity:1;fill-rule:nonzero;stroke:none;stroke-width:0.1"
         id="path322" /><path
         d="m 185.619,270.978 v -4.648 h -3.671 v 4.648 h 3.671"
         style="fill:#ffffff;fill-opacity:1;fill-rule:nonzero;stroke:none;stroke-width:0.1"
         id="path324" /><path
         d="m 192.896,270.978 v -4.648 h -3.671 v 4.648 h 3.671"
         style="fill:#ffffff;fill-opacity:1;fill-rule:nonzero;stroke:none;stroke-width:0.1"
         id="path326" /><path
         d="m 207.451,270.978 v -4.648 h -3.672 v 4.648 h 3.672"
         style="fill:#ffffff;fill-opacity:1;fill-rule:nonzero;stroke:none;stroke-width:0.1"
         id="path328" /><path
         d="m 214.729,270.978 v -4.648 h -3.674 v 4.648 h 3.674"
         style="fill:#ffffff;fill-opacity:1;fill-rule:nonzero;stroke:none;stroke-width:0.1"
         id="path330" /><path
         d="m 222.004,270.978 v -4.648 h -3.672 v 4.648 h 3.672"
         style="fill:#ffffff;fill-opacity:1;fill-rule:nonzero;stroke:none;stroke-width:0.1"
         id="path332" /><path
         d="m 229.281,270.978 v -4.648 h -3.672 v 4.648 h 3.672"
         style="fill:#ffffff;fill-opacity:1;fill-rule:nonzero;stroke:none;stroke-width:0.1"
         id="path334" /><path
         d="m 236.559,270.978 v -4.648 h -3.672 v 4.648 h 3.672"
         style="fill:#ffffff;fill-opacity:1;fill-rule:nonzero;stroke:none;stroke-width:0.1"
         id="path336" /><path
         d="m 200.173,270.978 v -8.551 h -3.672 v 8.551 h 3.672"
         style="fill:#ffffff;fill-opacity:1;fill-rule:nonzero;stroke:none;stroke-width:0.1"
         id="path338" /><path
         d="m 245.088,268.655 -6.178,-3.448 v 6.894 z"
         style="fill:#ffffff;fill-opacity:1;fill-rule:nonzero;stroke:none;stroke-width:0.1"
         id="path340" /><path
         d="m 151.587,268.655 6.177,3.446 v -6.894 z"
         style="fill:#ffffff;fill-opacity:1;fill-rule:nonzero;stroke:none;stroke-width:0.1"
         id="path342" /><path
         d="m 408.86325,223.996 c 2.816,0 5.367,1.132 7.229,2.96 -1.579,2.303 -4.225,3.815 -7.229,3.815 -3.002,0 -5.648,-1.512 -7.227,-3.815 1.862,-1.828 4.413,-2.96 7.227,-2.96"
         style="fill:#ffffff;fill-opacity:1;fill-rule:nonzero;stroke:none;stroke-width:0.1"
         id="path344" /><path
         d="m 412.48025,236.471 c 0,-2.625 -1.095,-5.7 -3.617,-5.7 -2.519,0 -3.615,3.075 -3.615,5.7 0,2.625 1.096,3.806 3.615,3.806 2.522,0 3.617,-1.181 3.617,-3.806"
         style="fill:#ffffff;fill-opacity:1;fill-rule:nonzero;stroke:none;stroke-width:0.1"
         id="path346" /><path
         d="m 412.33425,196.455 -3.987,6.128 5.26,4.952 -8.238,-4.451 3.984,-6.13 -5.23,-4.977 8.211,4.478"
         style="fill:#ffffff;fill-opacity:1;fill-rule:nonzero;stroke:none;stroke-width:0.1"
         id="path348" /><path
         d="m 406.46125,191.976 h -2.338 v 2.339 z"
         style="fill:#ffffff;fill-opacity:1;fill-rule:nonzero;stroke:none;stroke-width:0.1"
         id="path350" /><path
         d="m 408.86525,134.726 c 3.016,0 5.461,2.445 5.461,5.463 0,0.638 -0.115,1.248 -0.316,1.817 l -2.204,-2.204 -2.837,2.837 -2.942,-2.941 -2.308,2.308 c -0.202,-0.569 -0.317,-1.179 -0.317,-1.817 0,-3.018 2.445,-5.463 5.463,-5.463"
         style="fill:#ffffff;fill-opacity:1;fill-rule:nonzero;stroke:none;stroke-width:0.1"
         id="path352" /><path
         d="m 414.32625,130.803 v 2.008 h -2.008 c -1.906,0 -3.453,-1.547 -3.453,-3.454 v -2.009 h 2.008 c 1.906,0 3.453,1.547 3.453,3.455"
         style="fill:#ffffff;fill-opacity:1;fill-rule:nonzero;stroke:none;stroke-width:0.1"
         id="path354" /><path
         d="m 403.40225,130.803 v 2.008 l 5.463,-5.463 h -2.008 c -1.908,0 -3.455,1.547 -3.455,3.455"
         style="fill:#ffffff;fill-opacity:1;fill-rule:nonzero;stroke:none;stroke-width:0.1"
         id="path356" /><path
         d="m 409.13125,127.348 h -0.534 v 8.292 h 0.534 v -8.292"
         style="fill:#ffffff;fill-opacity:1;fill-rule:nonzero;stroke:none;stroke-width:0.1"
         id="path358" /><path
         d="m 412.33225,164.074 -3.985,6.128 5.26,4.951 -8.24,-4.451 3.984,-6.13 -5.23,-4.976 8.211,4.478"
         style="fill:#ffffff;fill-opacity:1;fill-rule:nonzero;stroke:none;stroke-width:0.1"
         id="path360" /><path
         d="m 406.46125,159.596 h -2.34 v 2.34 z"
         style="fill:#ffffff;fill-opacity:1;fill-rule:nonzero;stroke:none;stroke-width:0.1"
         id="path362" /><path
         d="m 401.91025,159.756 -0.67,0.67 14.58,14.579 0.668,-0.669 -14.578,-14.58"
         style="fill:#ffffff;fill-opacity:1;fill-rule:nonzero;stroke:none;stroke-width:0.1"
         id="path364" /><path
         d="m 364.97825,48.5672 h 1.102 v -9.2934 h -1.102 v 9.2934"
         style="fill:#ffffff;fill-opacity:1;fill-rule:nonzero;stroke:none;stroke-width:0.1"
         id="path366" /><path
         d="m 372.78325,41.6371 c 0,0.3707 -0.109,0.675 -0.332,0.909 -0.221,0.2348 -0.498,0.443 -0.828,0.6238 -0.332,0.1813 -0.694,0.352 -1.082,0.511 -0.391,0.1589 -0.75,0.3519 -1.082,0.5769 -0.332,0.2274 -0.61,0.5051 -0.83,0.8371 -0.221,0.3321 -0.332,0.7539 -0.332,1.268 0,0.725 0.252,1.3012 0.756,1.725 0.505,0.425 1.222,0.6383 2.15,0.6383 0.541,0 1.031,-0.0403 1.475,-0.1203 0.441,-0.0789 0.787,-0.1821 1.035,-0.3047 l -0.332,-0.9821 c -0.203,0.1 -0.502,0.1957 -0.897,0.2868 -0.392,0.0921 -0.838,0.1382 -1.334,0.1382 -0.584,0 -1.021,-0.1312 -1.314,-0.3921 -0.291,-0.2622 -0.438,-0.5692 -0.438,-0.9231 0,-0.3437 0.112,-0.6328 0.332,-0.8629 0.221,-0.2301 0.498,-0.4359 0.83,-0.6172 0.332,-0.1816 0.692,-0.3609 1.082,-0.5367 0.389,-0.1781 0.75,-0.3832 1.082,-0.618 0.332,-0.2351 0.608,-0.5152 0.829,-0.8429 0.222,-0.3274 0.332,-0.7352 0.332,-1.2211 0,-0.3981 -0.071,-0.7571 -0.211,-1.075 -0.143,-0.3192 -0.35,-0.5942 -0.625,-0.8231 -0.274,-0.2308 -0.606,-0.4082 -0.996,-0.532 -0.389,-0.1238 -0.833,-0.1852 -1.327,-0.1852 -0.664,0 -1.213,0.0512 -1.646,0.1524 -0.434,0.1019 -0.77,0.2148 -1.01,0.3387 l 0.373,0.982 c 0.203,-0.1117 0.504,-0.2207 0.902,-0.3301 0.399,-0.1066 0.846,-0.1609 1.34,-0.1609 0.293,0 0.567,0.0293 0.825,0.0863 0.255,0.0578 0.476,0.1508 0.664,0.2789 0.185,0.1277 0.334,0.2899 0.443,0.4848 0.111,0.1941 0.166,0.425 0.166,0.6902"
         style="fill:#ffffff;fill-opacity:1;fill-rule:nonzero;stroke:none;stroke-width:0.1"
         id="path368" /><path
         d="m 376.42025,43.9199 c 0,-0.5129 0.052,-1 0.154,-1.4597 0.102,-0.4602 0.258,-0.8653 0.471,-1.2141 0.213,-0.35 0.484,-0.6289 0.816,-0.8371 0.332,-0.2078 0.723,-0.3121 1.174,-0.3121 0.824,0 1.471,0.3121 1.939,0.9359 0.469,0.6242 0.704,1.5871 0.704,2.8871 0,0.5039 -0.051,0.9903 -0.153,1.4539 -0.101,0.4641 -0.262,0.8723 -0.478,1.2211 -0.217,0.35 -0.491,0.6281 -0.823,0.836 -0.332,0.2082 -0.728,0.3132 -1.189,0.3132 -0.813,0 -1.453,-0.3132 -1.918,-0.9371 -0.465,-0.623 -0.697,-1.5859 -0.697,-2.8871 z m -1.168,0 c 0,1.5492 0.328,2.7371 0.982,3.5653 0.656,0.8269 1.59,1.241 2.801,1.241 0.656,0 1.223,-0.1153 1.699,-0.3461 0.479,-0.2301 0.875,-0.5551 1.19,-0.975 0.314,-0.4199 0.546,-0.925 0.697,-1.5141 0.15,-0.5879 0.224,-1.2449 0.224,-1.9711 0,-1.548 -0.33,-2.7367 -0.988,-3.564 -0.66,-0.8278 -1.599,-1.2411 -2.822,-1.2411 -0.645,0 -1.205,0.1153 -1.678,0.3454 -0.474,0.2296 -0.867,0.5546 -1.181,0.975 -0.315,0.4207 -0.547,0.925 -0.698,1.5136 -0.15,0.5891 -0.226,1.2461 -0.226,1.9711"
         style="fill:#ffffff;fill-opacity:1;fill-rule:nonzero;stroke:none;stroke-width:0.1"
         id="path370" /><path
         d="m 403.06425,46.6781 c 0,-0.4422 -0.088,-0.889 -0.265,-1.341 -0.176,-0.4512 -0.401,-0.891 -0.67,-1.3211 -0.27,-0.4289 -0.571,-0.8469 -0.903,-1.2539 -0.332,-0.407 -0.656,-0.7832 -0.976,-1.1293 l -0.756,-0.5437 V 41.023 l 1.021,0.2122 h 2.748 V 39.682 h -6.066 v 0.9301 c 0.231,0.2289 0.488,0.4879 0.777,0.7758 0.287,0.2871 0.577,0.5949 0.87,0.923 0.291,0.327 0.578,0.6653 0.855,1.0153 0.279,0.3488 0.525,0.6968 0.738,1.0429 0.211,0.3438 0.385,0.6829 0.518,1.0137 0.133,0.332 0.199,0.6402 0.199,0.9231 0,0.3371 -0.103,0.6222 -0.307,0.857 -0.203,0.234 -0.552,0.3512 -1.048,0.3512 -0.309,0 -0.623,-0.0641 -0.942,-0.1922 -0.318,-0.1278 -0.594,-0.2938 -0.824,-0.4981 l -0.77,1.3282 c 0.381,0.2832 0.805,0.521 1.276,0.7171 0.469,0.1938 1.029,0.2918 1.685,0.2918 0.407,0 0.786,-0.0531 1.135,-0.1589 0.35,-0.1071 0.651,-0.2622 0.902,-0.4649 0.252,-0.2039 0.45,-0.4633 0.592,-0.7769 0.141,-0.3141 0.211,-0.6743 0.211,-1.0821"
         style="fill:#ffffff;fill-opacity:1;fill-rule:nonzero;stroke:none;stroke-width:0.1"
         id="path372" /><path
         d="m 406.52925,44.341 c 0,-1.0172 0.125,-1.8199 0.373,-2.409 0.248,-0.589 0.658,-0.8832 1.234,-0.8832 0.584,0 1,0.266 1.249,0.7973 0.248,0.5309 0.371,1.3629 0.371,2.4949 0,0.5051 -0.03,0.9578 -0.086,1.3621 -0.059,0.402 -0.149,0.7449 -0.272,1.0278 -0.125,0.2832 -0.291,0.5 -0.498,0.65 -0.209,0.1511 -0.463,0.2261 -0.764,0.2261 -0.576,0 -0.986,-0.2761 -1.234,-0.8289 -0.248,-0.5543 -0.373,-1.3652 -0.373,-2.4371 z m -1.91,0 c 0,1.584 0.303,2.784 0.908,3.5981 0.608,0.814 1.477,1.2218 2.609,1.2218 1.213,0 2.104,-0.4007 2.674,-1.2007 0.573,-0.8024 0.858,-2.0071 0.858,-3.6192 0,-1.575 -0.307,-2.7762 -0.916,-3.6031 -0.612,-0.8277 -1.483,-1.241 -2.616,-1.241 -0.601,0 -1.125,0.1121 -1.566,0.3383 -0.443,0.225 -0.809,0.5476 -1.096,0.9687 -0.287,0.4199 -0.502,0.9289 -0.644,1.527 -0.141,0.5972 -0.211,1.2671 -0.211,2.0101"
         style="fill:#ffffff;fill-opacity:1;fill-rule:nonzero;stroke:none;stroke-width:0.1"
         id="path374" /><path
         d="m 414.37525,44.341 c 0,-1.0172 0.123,-1.8199 0.371,-2.409 0.248,-0.589 0.66,-0.8832 1.234,-0.8832 0.584,0 1,0.266 1.248,0.7973 0.248,0.5309 0.373,1.3629 0.373,2.4949 0,0.5051 -0.029,0.9578 -0.088,1.3621 -0.056,0.402 -0.148,0.7449 -0.271,1.0278 -0.123,0.2832 -0.289,0.5 -0.498,0.65 -0.207,0.1511 -0.463,0.2261 -0.764,0.2261 -0.574,0 -0.986,-0.2761 -1.234,-0.8289 -0.248,-0.5543 -0.371,-1.3652 -0.371,-2.4371 z m -1.912,0 c 0,1.584 0.302,2.784 0.91,3.5981 0.605,0.814 1.474,1.2218 2.607,1.2218 1.213,0 2.106,-0.4007 2.676,-1.2007 0.57,-0.8024 0.855,-2.0071 0.855,-3.6192 0,-1.575 -0.304,-2.7762 -0.916,-3.6031 -0.609,-0.8277 -1.482,-1.241 -2.615,-1.241 -0.601,0 -1.123,0.1121 -1.566,0.3383 -0.442,0.225 -0.807,0.5476 -1.094,0.9687 -0.289,0.4199 -0.504,0.9289 -0.644,1.527 -0.143,0.5972 -0.213,1.2671 -0.213,2.0101"
         style="fill:#ffffff;fill-opacity:1;fill-rule:nonzero;stroke:none;stroke-width:0.1"
         id="path376" /></g></g></svg>
