<?xml version="1.0" encoding="UTF-8" standalone="no"?>
<!-- Created with Inkscape (http://www.inkscape.org/) -->

<svg
   version="1.1"
   id="svg2"
   xml:space="preserve"
   width="997.31464"
   height="1271.7999"
   viewBox="0 0 997.31462 1271.7999"
   sodipodi:docname="lampeBleue.svg"
   inkscape:version="1.1.2 (0a00cf5339, 2022-02-04)"
   xmlns:inkscape="http://www.inkscape.org/namespaces/inkscape"
   xmlns:sodipodi="http://sodipodi.sourceforge.net/DTD/sodipodi-0.dtd"
   xmlns="http://www.w3.org/2000/svg"
   xmlns:svg="http://www.w3.org/2000/svg"><defs
     id="defs6" /><sodipodi:namedview
     id="namedview4"
     pagecolor="#ffffff"
     bordercolor="#666666"
     borderopacity="1.0"
     inkscape:pageshadow="2"
     inkscape:pageopacity="0.0"
     inkscape:pagecheckerboard="0"
     showgrid="false"
     fit-margin-top="0"
     fit-margin-left="0"
     fit-margin-right="0"
     fit-margin-bottom="0"
     inkscape:zoom="0.31889026"
     inkscape:cx="863.93357"
     inkscape:cy="553.48194"
     inkscape:window-width="1920"
     inkscape:window-height="1029"
     inkscape:window-x="0"
     inkscape:window-y="25"
     inkscape:window-maximized="1"
     inkscape:current-layer="g8" /><g
     id="g8"
     inkscape:groupmode="layer"
     inkscape:label="ink_ext_XXXXXX"
     transform="matrix(1.3333333,0,0,-1.3333333,-225.93999,1705.52)"><path
       d="m 543.448,1211.79 c -5.362,0 -9.706,4.35 -9.706,9.71 v 47.93 c 0,5.36 4.344,9.71 9.706,9.71 5.362,0 9.706,-4.35 9.706,-9.71 v -47.93 c 0,-5.36 -4.344,-9.71 -9.706,-9.71"
       style="fill:#ff0000;fill-opacity:1;fill-rule:nonzero;stroke:none;stroke-width:0.1"
       id="path50" /><path
       d="m 767.145,1119.14 c -2.483,0 -4.967,0.94 -6.863,2.84 -3.791,3.79 -3.791,9.94 0,13.73 l 33.893,33.89 c 3.792,3.79 9.934,3.79 13.725,0 3.792,-3.79 3.792,-9.94 0,-13.73 l -33.892,-33.89 c -1.897,-1.9 -4.38,-2.84 -6.863,-2.84"
       style="fill:#ff0000;fill-opacity:1;fill-rule:nonzero;stroke:none;stroke-width:0.1"
       id="path52" /><path
       d="m 285.858,637.853 c -2.483,0 -4.967,0.948 -6.862,2.843 -3.792,3.788 -3.792,9.937 0,13.725 l 33.893,33.893 c 3.791,3.792 9.933,3.792 13.725,0 3.791,-3.788 3.791,-9.937 0,-13.725 l -33.893,-33.893 c -1.896,-1.895 -4.379,-2.843 -6.863,-2.843"
       style="fill:#ff0000;fill-opacity:1;fill-rule:nonzero;stroke:none;stroke-width:0.1"
       id="path54" /><path
       d="m 907.735,895.439 h -47.931 c -5.363,0 -9.706,4.345 -9.706,9.707 0,5.362 4.343,9.706 9.706,9.706 h 47.931 c 5.362,0 9.706,-4.344 9.706,-9.706 0,-5.362 -4.344,-9.707 -9.706,-9.707"
       style="fill:#ff0000;fill-opacity:1;fill-rule:nonzero;stroke:none;stroke-width:0.1"
       id="path56" /><path
       d="m 227.096,895.439 h -47.935 c -5.362,0 -9.706,4.345 -9.706,9.707 0,5.362 4.344,9.706 9.706,9.706 h 47.935 c 5.362,0 9.706,-4.344 9.706,-9.706 0,-5.362 -4.344,-9.707 -9.706,-9.707"
       style="fill:#ff0000;fill-opacity:1;fill-rule:nonzero;stroke:none;stroke-width:0.1"
       id="path58" /><path
       d="m 801.038,637.853 c -2.483,0 -4.967,0.948 -6.863,2.843 l -33.893,33.893 c -3.791,3.788 -3.791,9.937 0,13.725 3.791,3.792 9.934,3.792 13.726,0 L 807.9,654.421 c 3.792,-3.788 3.792,-9.937 0,-13.725 -1.895,-1.895 -4.379,-2.843 -6.862,-2.843"
       style="fill:#ff0000;fill-opacity:1;fill-rule:nonzero;stroke:none;stroke-width:0.1"
       id="path60" /><path
       d="m 319.751,1119.14 c -2.483,0 -4.967,0.94 -6.862,2.84 l -33.893,33.89 c -3.792,3.79 -3.792,9.94 0,13.73 3.791,3.79 9.934,3.79 13.725,0 l 33.893,-33.89 c 3.791,-3.79 3.791,-9.94 0,-13.73 -1.896,-1.9 -4.38,-2.84 -6.863,-2.84"
       style="fill:#ff0000;fill-opacity:1;fill-rule:nonzero;stroke:none;stroke-width:0.1"
       id="path62" /><path
       d="m 665.621,1187.25 c -1.252,0 -2.522,0.24 -3.745,0.75 -4.944,2.08 -7.276,7.76 -5.207,12.7 l 18.513,44.22 c 2.069,4.95 7.772,7.26 12.701,5.2 4.945,-2.07 7.277,-7.76 5.207,-12.7 l -18.512,-44.21 c -1.557,-3.72 -5.163,-5.96 -8.957,-5.96"
       style="fill:#ff0000;fill-opacity:1;fill-rule:nonzero;stroke:none;stroke-width:0.1"
       id="path64" /><path
       d="m 836.183,1015.39 c -3.824,0 -7.448,2.27 -8.987,6.03 -2.031,4.96 0.342,10.62 5.302,12.66 l 44.355,18.17 c 4.963,2.04 10.632,-0.34 12.664,-5.3 2.031,-4.96 -0.341,-10.63 -5.302,-12.66 l -44.355,-18.18 c -1.204,-0.49 -2.452,-0.72 -3.677,-0.72"
       style="fill:#ff0000;fill-opacity:1;fill-rule:nonzero;stroke:none;stroke-width:0.1"
       id="path66" /><path
       d="m 206.366,757.314 c -3.824,0 -7.448,2.272 -8.986,6.029 -2.032,4.96 0.341,10.629 5.302,12.663 l 44.354,18.174 c 4.964,2.032 10.632,-0.341 12.664,-5.302 2.031,-4.96 -0.342,-10.628 -5.302,-12.663 l -44.355,-18.174 c -1.203,-0.493 -2.451,-0.727 -3.677,-0.727"
       style="fill:#ff0000;fill-opacity:1;fill-rule:nonzero;stroke:none;stroke-width:0.1"
       id="path68" /><path
       d="m 879.469,754.752 c -1.251,0 -2.522,0.243 -3.744,0.755 l -44.212,18.513 c -4.946,2.072 -7.277,7.755 -5.207,12.701 2.072,4.947 7.772,7.27 12.701,5.207 l 44.213,-18.512 c 4.944,-2.073 7.276,-7.761 5.207,-12.702 -1.559,-3.722 -5.163,-5.962 -8.958,-5.962"
       style="fill:#ff0000;fill-opacity:1;fill-rule:nonzero;stroke:none;stroke-width:0.1"
       id="path70" /><path
       d="m 251.637,1017.61 c -1.252,0 -2.522,0.24 -3.745,0.76 l -44.215,18.51 c -4.945,2.07 -7.277,7.76 -5.207,12.7 2.07,4.95 7.776,7.27 12.701,5.21 l 44.216,-18.51 c 4.945,-2.08 7.276,-7.76 5.207,-12.71 -1.558,-3.72 -5.163,-5.96 -8.957,-5.96"
       style="fill:#ff0000;fill-opacity:1;fill-rule:nonzero;stroke:none;stroke-width:0.1"
       id="path72" /><path
       d="m 423.5,1188.17 c -3.823,0 -7.443,2.27 -8.986,6.03 l -18.174,44.35 c -2.031,4.96 0.342,10.63 5.302,12.66 4.963,2.03 10.631,-0.34 12.664,-5.3 l 18.173,-44.35 c 2.032,-4.96 -0.34,-10.63 -5.301,-12.66 -1.204,-0.5 -2.452,-0.73 -3.678,-0.73"
       style="fill:#ff0000;fill-opacity:1;fill-rule:nonzero;stroke:none;stroke-width:0.1"
       id="path74" /><path
       d="M 628.481,443.32 H 464.524 c -9.252,0 -16.752,7.5 -16.752,16.75 v 0 c 0,9.25 7.5,16.75 16.752,16.75 h 163.957 c 9.251,0 16.751,-7.5 16.751,-16.75 v 0 c 0,-9.25 -7.5,-16.75 -16.751,-16.75"
       style="fill:#ff0000;fill-opacity:1;fill-rule:nonzero;stroke:none;stroke-width:0.1"
       id="path76" /><path
       d="M 628.481,390.71 H 464.524 c -9.252,0 -16.752,7.5 -16.752,16.75 v 0 c 0,9.25 7.5,16.75 16.752,16.75 h 163.957 c 9.251,0 16.751,-7.5 16.751,-16.75 v 0 c 0,-9.25 -7.5,-16.75 -16.751,-16.75"
       style="fill:#ff0000;fill-opacity:1;fill-rule:nonzero;stroke:none;stroke-width:0.1"
       id="path78" /><path
       d="m 506.72,370.89 c -4.057,0 -7.136,-3.69 -6.391,-7.68 4.037,-21.58 22.946,-37.92 45.699,-37.92 22.753,0 41.662,16.34 45.699,37.92 0.746,3.99 -2.334,7.68 -6.391,7.68 H 506.72"
       style="fill:#ff0000;fill-opacity:1;fill-rule:nonzero;stroke:none;stroke-width:0.1"
       id="path80" /><path
       d="M 611.13,497.93 H 479.485 c -22.806,0 -42.01,17.83 -43.719,40.59 -5.578,74.22 -35.862,121.248 -67.929,171.037 -34.971,54.297 -71.129,110.444 -71.129,201.235 0,122.598 87.695,225.768 208.521,245.318 28.248,4.57 58.014,4.21 86.103,-1.03 117.389,-21.95 202.588,-124.69 202.588,-244.288 0,-90.791 -36.162,-146.938 -71.136,-201.235 -32.07,-49.789 -62.358,-96.817 -67.934,-171.037 -1.713,-22.76 -20.917,-40.59 -43.72,-40.59"
       style="fill:#ff0000;fill-opacity:1;fill-rule:nonzero;stroke:none;stroke-width:0.1"
       id="path82" /><path
       d="m 424.853,755.042 c -4.999,-0.003 -9.925,2.307 -13.091,6.654 -89.815,123.367 -23.609,239.154 -20.746,244.024 4.531,7.7 14.446,10.27 22.146,5.74 7.691,-4.52 10.266,-14.414 5.766,-22.11 -2.477,-4.273 -57.994,-102.868 18.989,-208.608 5.261,-7.222 3.669,-17.343 -3.554,-22.599 -2.876,-2.093 -6.209,-3.101 -9.51,-3.101"
       style="fill:#ffffff;fill-opacity:1;fill-rule:nonzero;stroke:none;stroke-width:0.1"
       id="path84" /></g></svg>
