<?xml version="1.0" encoding="UTF-8" standalone="no"?>
<!-- Created with Inkscape (http://www.inkscape.org/) -->

<svg
   version="1.1"
   id="svg2"
   xml:space="preserve"
   width="659.9552"
   height="659.95435"
   viewBox="0 0 659.9552 659.95435"
   sodipodi:docname="lentille.svg"
   inkscape:version="1.1.2 (0a00cf5339, 2022-02-04)"
   xmlns:inkscape="http://www.inkscape.org/namespaces/inkscape"
   xmlns:sodipodi="http://sodipodi.sourceforge.net/DTD/sodipodi-0.dtd"
   xmlns="http://www.w3.org/2000/svg"
   xmlns:svg="http://www.w3.org/2000/svg"><defs
     id="defs6" /><sodipodi:namedview
     id="namedview4"
     pagecolor="#ffffff"
     bordercolor="#666666"
     borderopacity="1.0"
     inkscape:pageshadow="2"
     inkscape:pageopacity="0.0"
     inkscape:pagecheckerboard="0"
     showgrid="false"
     fit-margin-top="0"
     fit-margin-left="0"
     fit-margin-right="0"
     fit-margin-bottom="0"
     inkscape:zoom="0.22794118"
     inkscape:cx="-761.16129"
     inkscape:cy="-59.225806"
     inkscape:window-width="1920"
     inkscape:window-height="1029"
     inkscape:window-x="0"
     inkscape:window-y="25"
     inkscape:window-maximized="1"
     inkscape:current-layer="g8" /><g
     id="g8"
     inkscape:groupmode="layer"
     inkscape:label="ink_ext_XXXXXX"
     transform="matrix(1.3333333,0,0,-1.3333333,-217.19835,1158.2096)"><path
       d="M 541.424,831.077 C 657.351,758.704 692.658,606.058 620.285,490.131 547.912,374.206 395.266,338.899 279.339,411.271 c -115.926,72.373 -151.233,225.02 -78.86,340.946 72.373,115.926 225.02,151.233 340.945,78.86"
       style="fill:#59595b;fill-opacity:1;fill-rule:nonzero;stroke:none;stroke-width:0.1"
       id="path24" /><path
       d="m 523.113,801.746 c 99.727,-62.26 130.1,-193.576 67.841,-293.303 -62.26,-99.727 -193.576,-130.1 -293.303,-67.841 -99.727,62.26 -130.1,193.576 -67.84,293.303 62.259,99.727 193.575,130.1 293.302,67.841"
       style="fill:#b3d1e2;fill-opacity:1;fill-rule:nonzero;stroke:none;stroke-width:0.1"
       id="path26" /><path
       d="m 242.879,615.799 c -7.606,10e-4 -15.48,5.037 -15.631,14.818 -0.114,7.367 0.102,14.754 0.978,22.076 9.061,75.708 64.667,140.481 140.03,156.521 12.528,2.666 25.1,3.957 37.553,3.957 63.565,0 123.83,-33.676 156.909,-90.11 6.611,-11.278 -3.518,-21.282 -13.707,-21.282 -4.762,0 -9.538,2.186 -12.623,7.449 -27.312,46.595 -77.884,74.361 -130.284,74.361 -13.529,0 -27.182,-1.851 -40.585,-5.707 -65.48,-18.839 -109.589,-80.257 -108.541,-148.132 0.145,-9.385 -6.855,-13.952 -14.099,-13.951"
       style="fill:#c4dbe8;fill-opacity:1;fill-rule:nonzero;stroke:none;stroke-width:0.1"
       id="path28" /><path
       d="m 570.435,643.94 c -3.542,0 -7.127,0.96 -10.353,2.975 -9.176,5.728 -11.97,17.81 -6.241,26.986 3.714,5.949 10.1,9.216 16.632,9.216 3.543,0 7.127,-0.96 10.354,-2.974 9.176,-5.728 11.97,-17.811 6.241,-26.986 -3.714,-5.95 -10.1,-9.217 -16.633,-9.217"
       style="fill:#cbdfeb;fill-opacity:1;fill-rule:nonzero;stroke:none;stroke-width:0.1"
       id="path30" /><path
       d="m 618.037,619.652 c -0.185,-51.164 -18.767,-100.757 -52.555,-139.23 -33.354,-37.979 -79.789,-62.495 -129.733,-69.576 -51.063,-7.239 -103.777,5.714 -146.445,34.327 -41.556,27.868 -71.879,70.859 -85.175,118.972 -13.786,49.889 -8.079,104.298 15.162,150.459 22.387,44.466 60.885,80.254 106.793,99.482 47.928,20.074 102.326,21.28 151.325,4.312 47.183,-16.339 87.26,-50.309 112.369,-93.287 18.65,-31.921 28.125,-68.56 28.259,-105.459 0.026,-7.301 11.351,-7.304 11.325,0 -0.185,51.26 -17.92,100.619 -50.112,140.451 -31.431,38.889 -76.467,66.082 -125.255,76.612 -50.6,10.922 -104.107,3.315 -149.933,-20.56 -44.049,-22.949 -79.573,-61.361 -99.684,-106.684 -21.021,-47.372 -24.492,-101.468 -10.346,-151.275 13.668,-48.127 44.232,-90.226 84.673,-119.404 41.578,-29.999 93.526,-44.052 144.541,-40.541 50.58,3.481 98.675,24.875 135.77,59.29 44.809,41.57 70.126,101.161 70.346,162.111 0.026,7.305 -11.299,7.302 -11.325,0"
       style="fill:#6a8678;fill-opacity:1;fill-rule:nonzero;stroke:none;stroke-width:0.1"
       id="path34" /></g></svg>
